<svg width="800" height="800" viewBox="0 0 800 800" fill="none" xmlns="http://www.w3.org/2000/svg">
<path d="M733.957 560.677L629.623 316.676C610.623 272.009 582.29 246.676 549.957 245.009C517.957 243.342 486.957 265.676 463.29 308.342L399.957 422.01C386.623 446.01 367.623 460.343 346.957 462.01C325.956 464.01 304.956 453.01 287.956 431.343L280.622 422.01C256.956 392.343 227.622 378.01 197.622 381.01C167.622 384.01 141.956 404.677 124.956 438.343L67.289 553.343C46.6223 595.01 48.6223 643.343 72.9556 682.677C97.289 722.01 139.622 745.677 185.956 745.677H611.29C655.957 745.677 697.623 723.343 722.29 686.01C747.623 648.677 751.623 601.677 733.957 560.677Z" fill="#5E6875"/>
<path d="M232.328 279.37C294.552 279.37 344.993 228.927 344.993 166.703C344.993 104.479 294.552 54.0364 232.328 54.0364C170.104 54.0364 119.661 104.479 119.661 166.703C119.661 228.927 170.104 279.37 232.328 279.37Z" fill="#FF9900"/>
</svg>
